<svg width="64" height="64" viewBox="0 0 64 64" fill="none" xmlns="http://www.w3.org/2000/svg">
<path d="M56 26.6667C56 45.3334 32 61.3334 32 61.3334C32 61.3334 8 45.3334 8 26.6667C8 20.3015 10.5286 14.197 15.0294 9.69612C19.5303 5.19525 25.6348 2.66669 32 2.66669C38.3652 2.66669 44.4697 5.19525 48.9706 9.69612C53.4714 14.197 56 20.3015 56 26.6667Z" fill="#0B7760" stroke="#0B7760" stroke-width="2" stroke-linecap="round" stroke-linejoin="round"/>
<path d="M44.7312 22.1744H41.0609V17.9689H41.0227C41.0227 17.9307 41.0227 17.8925 41.0227 17.8925C41.0609 16.5926 40.5639 15.3692 39.6464 14.4516C38.7288 13.4958 37.5054 12.9988 36.1673 12.9988C35.8232 12.9988 35.4409 13.037 35.0968 13.1135C33.9498 11.3931 31.9618 10.3226 29.8208 10.3226C27.1446 10.3226 24.8124 12.0048 23.8566 14.4516C23.8184 14.4516 23.7419 14.4516 23.7037 14.4516C20.8745 14.4516 18.5806 16.7455 18.5806 19.5747V26.6858C18.5806 28.8268 20.1481 30.6236 22.2127 30.9295V40.6786C22.2127 42.1696 23.3978 43.3548 24.8889 43.3548H38.3847C39.8757 43.3548 41.0609 42.1696 41.0609 40.6786V38.0024H44.7312C46.2222 38.0024 47.4074 36.8172 47.4074 35.3262V24.8506C47.4074 23.3596 46.2222 22.1744 44.7312 22.1744ZM20.8745 26.6475V19.5364C20.8745 17.9689 22.1362 16.7073 23.7037 16.7073C23.9331 16.7073 24.1625 16.7455 24.4301 16.822C24.736 16.8984 25.08 16.8602 25.3094 16.669C25.5771 16.5161 25.7682 16.2103 25.8064 15.9044C26.1888 13.9546 27.8327 12.54 29.8208 12.54C31.4265 12.54 32.8793 13.4576 33.5293 14.9104C33.644 15.178 33.8734 15.4074 34.1792 15.5221C34.4468 15.6368 34.7909 15.6368 35.0585 15.4839C35.4791 15.2927 35.8232 15.2162 36.1673 15.2162C36.8554 15.2162 37.5054 15.4839 38.0024 15.9809C38.4994 16.4779 38.7288 17.1278 38.7288 17.816C38.7288 19.2306 37.5436 20.4158 36.129 20.4158C35.3644 20.4158 34.6762 20.1099 34.1792 19.5747C33.9881 19.3453 33.6822 19.1923 33.3763 19.1923C33.0705 19.1923 32.7646 19.307 32.5352 19.4982C31.8088 20.1864 30.8148 20.6069 29.7826 20.6069C29.0944 20.6069 28.4444 20.454 27.871 20.1099C27.5651 19.957 27.221 19.9187 26.9152 20.0334C26.6093 20.1481 26.3417 20.3775 26.227 20.6834C26.0358 21.1039 25.7682 21.448 25.3477 21.7921C25.08 22.0215 24.9271 22.3273 24.9271 22.7097V26.6475C24.9271 27.7563 24.0096 28.6738 22.9008 28.6738C21.7921 28.6738 20.8745 27.7563 20.8745 26.6475ZM38.3847 41.0227H24.8889C24.6977 41.0227 24.5066 40.8315 24.5066 40.6404V30.6619C26.1123 30.0119 27.221 28.4827 27.221 26.6475V23.2449C27.4122 23.0538 27.6033 22.8244 27.7563 22.6332C28.4062 22.8626 29.0562 22.9773 29.7826 22.9773C31.0442 22.9773 32.2676 22.595 33.2999 21.9068C34.1027 22.4803 35.0968 22.7861 36.129 22.7861C37.0848 22.7861 38.0024 22.4803 38.767 22.0215V40.6786C38.767 40.8315 38.5759 41.0227 38.3847 41.0227ZM45.1135 35.2879C45.1135 35.4791 44.9223 35.6702 44.7312 35.6702H41.0609V24.4683H44.7312C44.9223 24.4683 45.1135 24.6595 45.1135 24.8506V35.2879Z" fill="#ABD1C6"/>
<path d="M28.8268 30.3178C28.1768 30.3178 27.6798 30.8148 27.6798 31.4648V37.1995C27.6798 37.8495 28.1768 38.3465 28.8268 38.3465C29.4767 38.3465 29.9737 37.8495 29.9737 37.1995V31.4648C29.9737 30.8148 29.4767 30.3178 28.8268 30.3178Z" fill="#ABD1C6"/>
<path d="M34.1792 24.9653C33.5293 24.9653 33.0323 25.4623 33.0323 26.1123V37.1995C33.0323 37.8494 33.5293 38.3465 34.1792 38.3465C34.8292 38.3465 35.3262 37.8494 35.3262 37.1995V26.1123C35.3262 25.4623 34.8292 24.9653 34.1792 24.9653Z" fill="#ABD1C6"/>
</svg>
