<svg width="48" height="48" viewBox="0 0 48 48" fill="none" xmlns="http://www.w3.org/2000/svg">
<path d="M42 20C42 34 24 46 24 46C24 46 6 34 6 20C6 15.2261 7.89642 10.6477 11.2721 7.27208C14.6477 3.89642 19.2261 2 24 2C28.7739 2 33.3523 3.89642 36.7279 7.27208C40.1036 10.6477 42 15.2261 42 20Z" fill="#0B7760" stroke="#0B7760" stroke-width="2" stroke-linecap="round" stroke-linejoin="round"/>
<path d="M33.5484 16.6308H30.7957V13.4767H30.767C30.767 13.448 30.767 13.4194 30.767 13.4194C30.7957 12.4445 30.4229 11.5269 29.7348 10.8387C29.0466 10.1219 28.129 9.74911 27.1255 9.74911C26.8674 9.74911 26.5806 9.77779 26.3226 9.83513C25.4624 8.54481 23.9713 7.74194 22.3656 7.74194C20.3584 7.74194 18.6093 9.00359 17.8925 10.8387C17.8638 10.8387 17.8065 10.8387 17.7778 10.8387C15.6559 10.8387 13.9355 12.5591 13.9355 14.681V20.0143C13.9355 21.6201 15.1111 22.9677 16.6595 23.1971V30.509C16.6595 31.6272 17.5484 32.5161 18.6667 32.5161H28.7885C29.9068 32.5161 30.7957 31.6272 30.7957 30.509V28.5018H33.5484C34.6667 28.5018 35.5556 27.6129 35.5556 26.4946V18.638C35.5556 17.5197 34.6667 16.6308 33.5484 16.6308ZM15.6559 19.9857V14.6523C15.6559 13.4767 16.6022 12.5305 17.7778 12.5305C17.9498 12.5305 18.1219 12.5591 18.3226 12.6165C18.552 12.6738 18.81 12.6452 18.9821 12.5018C19.1828 12.3871 19.3262 12.1577 19.3548 11.9283C19.6416 10.466 20.8746 9.40503 22.3656 9.40503C23.5699 9.40503 24.6595 10.0932 25.147 11.1828C25.233 11.3835 25.405 11.5556 25.6344 11.6416C25.8351 11.7276 26.0932 11.7276 26.2939 11.6129C26.6093 11.4695 26.8674 11.4122 27.1255 11.4122C27.6416 11.4122 28.129 11.6129 28.5018 11.9857C28.8746 12.3584 29.0466 12.8459 29.0466 13.362C29.0466 14.4229 28.1577 15.3118 27.0968 15.3118C26.5233 15.3118 26.0072 15.0824 25.6344 14.681C25.491 14.509 25.2617 14.3943 25.0323 14.3943C24.8029 14.3943 24.5735 14.4803 24.4014 14.6237C23.8566 15.1398 23.1111 15.4552 22.3369 15.4552C21.8208 15.4552 21.3333 15.3405 20.9032 15.0824C20.6738 14.9677 20.4158 14.9391 20.1864 15.0251C19.957 15.1111 19.7563 15.2832 19.6703 15.5126C19.5269 15.828 19.3262 16.086 19.0108 16.3441C18.81 16.5161 18.6953 16.7455 18.6953 17.0323V19.9857C18.6953 20.8172 18.0072 21.5054 17.1756 21.5054C16.3441 21.5054 15.6559 20.8172 15.6559 19.9857ZM28.7885 30.767H18.6667C18.5233 30.767 18.3799 30.6237 18.3799 30.4803V22.9964C19.5842 22.509 20.4158 21.362 20.4158 19.9857V17.4337C20.5591 17.2903 20.7025 17.1183 20.8172 16.9749C21.3047 17.147 21.7921 17.233 22.3369 17.233C23.2832 17.233 24.2007 16.9462 24.9749 16.4301C25.5771 16.8602 26.3226 17.0896 27.0968 17.0896C27.8136 17.0896 28.5018 16.8602 29.0753 16.5161V30.509C29.0753 30.6237 28.9319 30.767 28.7885 30.767ZM33.8351 26.466C33.8351 26.6093 33.6918 26.7527 33.5484 26.7527H30.7957V18.3513H33.5484C33.6918 18.3513 33.8351 18.4946 33.8351 18.638V26.466Z" fill="#ABD1C6"/>
<path d="M21.6201 22.7383C21.1326 22.7383 20.7599 23.1111 20.7599 23.5986V27.8996C20.7599 28.3871 21.1326 28.7598 21.6201 28.7598C22.1075 28.7598 22.4803 28.3871 22.4803 27.8996V23.5986C22.4803 23.1111 22.1075 22.7383 21.6201 22.7383Z" fill="#ABD1C6"/>
<path d="M25.6344 18.724C25.147 18.724 24.7742 19.0968 24.7742 19.5842V27.8996C24.7742 28.3871 25.147 28.7598 25.6344 28.7598C26.1219 28.7598 26.4946 28.3871 26.4946 27.8996V19.5842C26.4946 19.0968 26.1219 18.724 25.6344 18.724Z" fill="#ABD1C6"/>
</svg>
