<svg width="52" height="70" viewBox="0 0 52 70" fill="none" xmlns="http://www.w3.org/2000/svg">
<path d="M33.7271 61.7132H10.8688C10.3818 61.7132 9.98681 62.1082 9.98681 62.5951C9.98681 63.0821 10.3818 63.4771 10.8688 63.4771H33.7279C34.2149 63.4771 34.6099 63.0821 34.6099 62.5951C34.6099 62.1082 34.2141 61.7132 33.7271 61.7132Z" fill="#efe3a5"/>
<path d="M22.1732 56.7757C22.6602 56.7757 23.0551 56.3807 23.0551 55.8938V31.9144C23.0551 31.4275 22.6602 31.0325 22.1732 31.0325C21.6863 31.0325 21.2913 31.4275 21.2913 31.9144V55.8946C21.2921 56.3807 21.6863 56.7757 22.1732 56.7757Z" fill="#efe3a5"/>
<path d="M13.357 56.7757C13.844 56.7757 14.239 56.3807 14.239 55.8938V31.9144C14.239 31.4275 13.844 31.0325 13.357 31.0325C12.8701 31.0325 12.4751 31.4275 12.4751 31.9144V55.8946C12.4759 56.3807 12.8701 56.7757 13.357 56.7757Z" fill="#efe3a5"/>
<path d="M45.1779 26.977H39.6904V21.5111H39.672C42.3522 19.8927 44.0369 17.075 44.0369 13.9295C44.0369 8.97128 39.7983 4.9374 34.5883 4.9374C33.7727 4.9374 32.9611 5.03735 32.1751 5.23485C31.9209 5.29881 31.6626 5.21166 31.5195 5.01176C29.2695 1.87341 25.5426 0 21.5519 0C16.3922 0 11.8067 3.11676 10.1411 7.75672C10.034 8.05497 9.75574 8.23167 9.46229 8.19169C9.08729 8.13812 8.70589 8.11094 8.32929 8.11094C4.04354 8.11094 0.557373 11.4332 0.557373 15.5166C0.557373 18.4279 2.33324 20.9442 4.90389 22.154V62.0722L2.406 65.0218C1.62161 65.9477 1.4561 67.2822 1.98382 68.4216C2.44198 69.4099 3.31352 70 4.3162 70H40.2789C41.2808 70 42.1523 69.4099 42.6105 68.4216C43.139 67.2822 42.9727 65.9477 42.1883 65.0218L39.6904 62.0722V52.0151H45.1779C48.6321 52.0151 51.4426 49.2045 51.4426 45.7503V33.2417C51.4426 29.7875 48.6329 26.977 45.1779 26.977ZM39.6912 33.1698H44.719C45.1211 33.1698 45.4482 33.4968 45.4482 33.899V45.0939C45.4482 45.4961 45.1211 45.8231 44.719 45.8231H39.6912V33.1698ZM2.32204 15.5166C2.32204 12.4055 5.01743 9.87401 8.33088 9.87401C8.62433 9.87401 8.92097 9.8948 9.21362 9.93718C10.3274 10.0971 11.4157 9.43024 11.8027 8.35241C13.2179 4.41128 17.1367 1.76307 21.5535 1.76307C24.9773 1.76307 28.1677 3.36143 30.0874 6.03922C30.6551 6.83161 31.6442 7.18742 32.6069 6.94435C33.2514 6.78203 33.919 6.70048 34.5899 6.70048C38.8276 6.70048 42.2746 9.94357 42.2746 13.9295C42.2746 17.107 40.1102 19.8799 36.8895 20.8298C36.8183 20.8506 36.7471 20.8714 36.6736 20.8906C36.576 20.9162 36.4785 20.9402 36.3793 20.9626L36.3521 20.969C36.3282 20.9738 36.3042 20.9794 36.2802 20.9834C34.4332 20.9834 32.93 22.4866 32.93 24.3336V25.3915V26.4493V32.4445C32.93 33.3193 32.2183 34.0317 31.3428 34.0317C30.4672 34.0317 29.7556 33.3201 29.7556 32.4445V25.0388V24.3336V22.9231C29.7556 21.0761 28.2524 19.5729 26.4054 19.5729C24.6791 19.5729 23.2702 20.8906 23.0911 22.5705H23.0551V22.9231V25.0388V26.0967C23.0551 26.9714 22.3435 27.6838 21.468 27.6838C20.5924 27.6838 19.8808 26.9722 19.8808 26.0967V23.2758H19.8616C19.7625 22.0948 18.7806 21.1601 17.574 21.1585L8.50199 21.1505C8.46202 21.1513 8.42204 21.1537 8.38206 21.1569L8.33008 21.1601C5.01743 21.1585 2.32204 18.6278 2.32204 15.5166ZM40.8434 66.1612C41.2328 66.621 41.208 67.255 41.0113 67.6804C40.9337 67.8475 40.7075 68.2369 40.2789 68.2369H4.317C3.88922 68.2369 3.66214 67.8475 3.58458 67.6804C3.38788 67.2558 3.3631 66.621 3.75249 66.1612L6.66856 62.7182V22.7472C7.20508 22.8592 7.75998 22.9223 8.33088 22.9223C8.38765 22.9223 8.44363 22.9192 8.4996 22.916L8.52598 22.9136L17.574 22.9215C17.8747 22.9215 18.1193 23.1662 18.1193 23.4669V26.0967C18.1193 27.9437 19.6225 29.4469 21.4696 29.4469C23.3166 29.4469 24.8198 27.9437 24.8198 26.0967V25.0388V22.9231C24.8198 22.0484 25.5314 21.336 26.407 21.336C27.2817 21.336 27.9941 22.0476 27.9941 22.9231V24.3336V25.0388V32.4445C27.9941 33.9845 29.0448 35.2719 30.4624 35.662V55.8954C30.4624 56.3824 30.8574 56.7774 31.3444 56.7774C31.8313 56.7774 32.2263 56.3824 32.2263 55.8954V35.6605C33.644 35.2703 34.6946 33.9829 34.6946 32.4429V26.4477V25.3898V24.332C34.6946 23.6356 35.1456 23.0431 35.7701 22.8296L35.9244 22.8128C36.1523 22.7888 36.4537 22.752 36.7623 22.6825L36.7919 22.6761C36.9047 22.6505 37.0166 22.6233 37.1261 22.5937C37.2149 22.5705 37.3029 22.5457 37.39 22.5202C37.5739 22.4658 37.7522 22.4018 37.9305 22.3379V62.7174L40.8434 66.1612ZM49.6795 45.7503C49.6795 48.2322 47.6606 50.252 45.1779 50.252H39.6904V47.5862H44.7181C46.0926 47.5862 47.2104 46.4684 47.2104 45.0939V33.899C47.2104 32.5245 46.0926 31.4067 44.7181 31.4067H39.6904V28.7409H45.1779C47.6598 28.7409 49.6795 30.7598 49.6795 33.2417V45.7503Z" fill="#efe3a5"/>
</svg>
