<svg xmlns="http://www.w3.org/2000/svg" viewBox="0 0 499.99 998.07"><defs><style>.cls-1{fill:#ecc145;}</style></defs><title>wave</title><g id="Capa_2" data-name="Capa 2"><g id="Capa_1-2" data-name="Capa 1"><path class="cls-1" d="M499.9,47.16q0,473.16.09,946.32c0,3.74-.85,4.59-4.59,4.59q-245.4-.17-490.81,0c-3.75,0-4.59-.85-4.59-4.59Q.15,521.33.09,49.16C2.07,49,3,50.58,4.22,51.6,12.91,58.86,21.62,66.07,31,72.48c37.62,25.8,78.57,35,123.35,24.56,33.16-7.74,62.19-24,89.27-44.1,9.89-7.34,19.68-14.8,30.17-21.3C302,14.12,332.37,2.27,365.84.33c49.57-2.88,92.82,13.4,130.75,44.84C497.58,46,498.35,47.24,499.9,47.16Z"/></g></g></svg>